<?xml version="1.0" encoding="UTF-8"?><svg xmlns="http://www.w3.org/2000/svg" xmlns:xlink="http://www.w3.org/1999/xlink" fill-opacity="1" color-rendering="auto" color-interpolation="auto" text-rendering="auto" stroke="black" stroke-linecap="square" width="735" stroke-miterlimit="10" shape-rendering="auto" stroke-opacity="1" fill="black" stroke-dasharray="none" font-weight="normal" stroke-width="1" height="345" font-family="'Dialog'" font-style="normal" stroke-linejoin="miter" font-size="12px" stroke-dashoffset="0" image-rendering="auto">
  <!--Generated by ySVG 2.6-->
  <defs id="genericDefs"/>
  <g>
    <defs id="defs1">
      <clipPath clipPathUnits="userSpaceOnUse" id="clipPath1">
        <path d="M0 0 L735 0 L735 345 L0 345 L0 0 Z"/>
      </clipPath>
      <clipPath clipPathUnits="userSpaceOnUse" id="clipPath2">
        <path d="M480 195 L1215 195 L1215 540 L480 540 L480 195 Z"/>
      </clipPath>
    </defs>
    <g fill="white" text-rendering="geometricPrecision" shape-rendering="geometricPrecision" transform="translate(-480,-195)" stroke="white">
      <rect x="480" width="735" height="345" y="195" clip-path="url(#clipPath2)" stroke="none"/>
    </g>
    <g fill="rgb(0,204,255)" text-rendering="geometricPrecision" shape-rendering="geometricPrecision" transform="matrix(1,0,0,1,-480,-195)" stroke="rgb(0,204,255)">
      <rect x="825" width="375" height="205" y="320" clip-path="url(#clipPath2)" stroke="none"/>
    </g>
    <g font-size="36px" stroke-linecap="butt" transform="matrix(1,0,0,1,-480,-195)" text-rendering="geometricPrecision" font-family="sans-serif" shape-rendering="geometricPrecision" stroke-miterlimit="1.45">
      <text x="989.4902" xml:space="preserve" y="436.6416" clip-path="url(#clipPath2)" stroke="none">R2</text>
    </g>
    <g fill="rgb(255,204,0)" text-rendering="geometricPrecision" shape-rendering="geometricPrecision" transform="matrix(1,0,0,1,-480,-195)" stroke="rgb(255,204,0)">
      <rect x="495" width="486" height="259.64" y="210.36" clip-path="url(#clipPath2)" stroke="none"/>
    </g>
    <g font-size="36px" stroke-linecap="butt" transform="matrix(1,0,0,1,-480,-195)" text-rendering="geometricPrecision" font-family="sans-serif" shape-rendering="geometricPrecision" stroke-miterlimit="1.45">
      <text x="714.9902" xml:space="preserve" y="354.3216" clip-path="url(#clipPath2)" stroke="none">R1</text>
    </g>
    <g fill="rgb(153,204,0)" text-rendering="geometricPrecision" shape-rendering="geometricPrecision" transform="matrix(1,0,0,1,-480,-195)" stroke="rgb(153,204,0)">
      <rect x="825" width="156" height="150" y="320" clip-path="url(#clipPath2)" stroke="none"/>
    </g>
    <g font-size="36px" stroke-linecap="butt" transform="matrix(1,0,0,1,-480,-195)" text-rendering="geometricPrecision" font-family="sans-serif" shape-rendering="geometricPrecision" stroke-miterlimit="1.45">
      <text x="839.9736" xml:space="preserve" y="409.1416" clip-path="url(#clipPath2)" stroke="none">R1 * R2</text>
    </g>
  </g>
</svg>
