<?xml version="1.0" encoding="UTF-8"?><svg xmlns="http://www.w3.org/2000/svg" xmlns:xlink="http://www.w3.org/1999/xlink" fill-opacity="1" color-rendering="auto" color-interpolation="auto" text-rendering="auto" stroke="black" stroke-linecap="square" width="243" stroke-miterlimit="10" shape-rendering="auto" stroke-opacity="1" fill="black" stroke-dasharray="none" font-weight="normal" stroke-width="1" height="61" font-family="'Dialog'" font-style="normal" stroke-linejoin="miter" font-size="12px" stroke-dashoffset="0" image-rendering="auto">
  <!--Generated by ySVG 2.6-->
  <defs id="genericDefs"/>
  <g>
    <defs id="defs1">
      <clipPath clipPathUnits="userSpaceOnUse" id="clipPath1">
        <path d="M0 0 L243 0 L243 61 L0 61 L0 0 Z"/>
      </clipPath>
      <clipPath clipPathUnits="userSpaceOnUse" id="clipPath2">
        <path d="M511 474 L754 474 L754 535 L511 535 L511 474 Z"/>
      </clipPath>
    </defs>
    <g fill="rgb(205,164,182)" text-rendering="geometricPrecision" shape-rendering="geometricPrecision" transform="matrix(1,0,0,1,-511,-474)" stroke="rgb(205,164,182)">
      <rect x="511.1621" width="30" height="30" y="474.6022" clip-path="url(#clipPath2)" stroke="none"/>
    </g>
    <g text-rendering="geometricPrecision" stroke-miterlimit="1.45" shape-rendering="geometricPrecision" transform="matrix(1,0,0,1,-511,-474)" stroke-linecap="butt">
      <rect fill="none" x="511.1621" width="30" height="30" y="474.6022" clip-path="url(#clipPath2)"/>
      <text x="522.864" y="493.62" clip-path="url(#clipPath2)" fill="white" font-family="'Fira Sans Light'" stroke="none" xml:space="preserve">0</text>
    </g>
    <g fill="rgb(230,82,106)" text-rendering="geometricPrecision" shape-rendering="geometricPrecision" transform="matrix(1,0,0,1,-511,-474)" stroke="rgb(230,82,106)">
      <rect x="553.614" width="30" height="30" y="474.6022" clip-path="url(#clipPath2)" stroke="none"/>
    </g>
    <g text-rendering="geometricPrecision" stroke-miterlimit="1.45" shape-rendering="geometricPrecision" transform="matrix(1,0,0,1,-511,-474)" stroke-linecap="butt">
      <rect fill="none" x="553.614" width="30" height="30" y="474.6022" clip-path="url(#clipPath2)"/>
      <text x="566.1373" y="493.62" clip-path="url(#clipPath2)" fill="white" font-family="'Fira Sans Light'" stroke="none" xml:space="preserve">1</text>
    </g>
    <g fill="rgb(253,170,125)" text-rendering="geometricPrecision" shape-rendering="geometricPrecision" transform="matrix(1,0,0,1,-511,-474)" stroke="rgb(253,170,125)">
      <rect x="596.0658" width="30" height="30" y="474.6022" clip-path="url(#clipPath2)" stroke="none"/>
    </g>
    <g text-rendering="geometricPrecision" stroke-miterlimit="1.45" shape-rendering="geometricPrecision" transform="matrix(1,0,0,1,-511,-474)" stroke-linecap="butt">
      <rect fill="none" x="596.0658" width="30" height="30" y="474.6022" clip-path="url(#clipPath2)"/>
      <text x="608.1934" y="493.62" clip-path="url(#clipPath2)" fill="white" font-family="'Fira Sans Light'" stroke="none" xml:space="preserve">2</text>
    </g>
    <g fill="rgb(232,217,114)" text-rendering="geometricPrecision" shape-rendering="geometricPrecision" transform="matrix(1,0,0,1,-511,-474)" stroke="rgb(232,217,114)">
      <rect x="638.5176" width="30" height="30" y="474.6022" clip-path="url(#clipPath2)" stroke="none"/>
    </g>
    <g text-rendering="geometricPrecision" stroke-miterlimit="1.45" shape-rendering="geometricPrecision" transform="matrix(1,0,0,1,-511,-474)" stroke-linecap="butt">
      <rect fill="none" x="638.5176" width="30" height="30" y="474.6022" clip-path="url(#clipPath2)"/>
      <text x="650.6032" y="493.62" clip-path="url(#clipPath2)" fill="white" font-family="'Fira Sans Light'" stroke="none" xml:space="preserve">3</text>
    </g>
    <g fill="rgb(183,204,117)" text-rendering="geometricPrecision" shape-rendering="geometricPrecision" transform="matrix(1,0,0,1,-511,-474)" stroke="rgb(183,204,117)">
      <rect x="680.9695" width="30" height="30" y="474.6022" clip-path="url(#clipPath2)" stroke="none"/>
    </g>
    <g text-rendering="geometricPrecision" stroke-miterlimit="1.45" shape-rendering="geometricPrecision" transform="matrix(1,0,0,1,-511,-474)" stroke-linecap="butt">
      <rect fill="none" x="680.9695" width="30" height="30" y="474.6022" clip-path="url(#clipPath2)"/>
      <text x="692.8632" y="493.62" clip-path="url(#clipPath2)" fill="white" font-family="'Fira Sans Light'" stroke="none" xml:space="preserve">4</text>
    </g>
    <g fill="rgb(100,139,191)" text-rendering="geometricPrecision" shape-rendering="geometricPrecision" transform="matrix(1,0,0,1,-511,-474)" stroke="rgb(100,139,191)">
      <rect x="723.4213" width="30" height="30" y="474.6022" clip-path="url(#clipPath2)" stroke="none"/>
    </g>
    <g text-rendering="geometricPrecision" stroke-miterlimit="1.45" shape-rendering="geometricPrecision" transform="matrix(1,0,0,1,-511,-474)" stroke-linecap="butt">
      <rect fill="none" x="723.4213" width="30" height="30" y="474.6022" clip-path="url(#clipPath2)"/>
      <text x="735.5009" y="493.62" clip-path="url(#clipPath2)" fill="white" font-family="'Fira Sans Light'" stroke="none" xml:space="preserve">5</text>
    </g>
    <g fill="rgb(205,164,182)" text-rendering="geometricPrecision" shape-rendering="geometricPrecision" transform="matrix(1,0,0,1,-511,-474)" stroke="rgb(205,164,182)">
      <rect x="596.0658" width="30" height="30" y="504.6022" clip-path="url(#clipPath2)" stroke="none"/>
    </g>
    <g text-rendering="geometricPrecision" stroke-miterlimit="1.45" shape-rendering="geometricPrecision" transform="matrix(1,0,0,1,-511,-474)" stroke-linecap="butt">
      <rect fill="none" x="596.0658" width="30" height="30" y="504.6022" clip-path="url(#clipPath2)"/>
      <text x="607.7676" y="523.62" clip-path="url(#clipPath2)" fill="white" font-family="'Fira Sans Light'" stroke="none" xml:space="preserve">0</text>
    </g>
    <g fill="rgb(230,82,106)" text-rendering="geometricPrecision" shape-rendering="geometricPrecision" transform="matrix(1,0,0,1,-511,-474)" stroke="rgb(230,82,106)">
      <rect x="638.5176" width="30" height="30" y="504.6022" clip-path="url(#clipPath2)" stroke="none"/>
    </g>
    <g text-rendering="geometricPrecision" stroke-miterlimit="1.45" shape-rendering="geometricPrecision" transform="matrix(1,0,0,1,-511,-474)" stroke-linecap="butt">
      <rect fill="none" x="638.5176" width="30" height="30" y="504.6022" clip-path="url(#clipPath2)"/>
      <text x="651.041" y="523.62" clip-path="url(#clipPath2)" fill="white" font-family="'Fira Sans Light'" stroke="none" xml:space="preserve">1</text>
    </g>
    <g fill="rgb(253,170,125)" text-rendering="geometricPrecision" shape-rendering="geometricPrecision" transform="matrix(1,0,0,1,-511,-474)" stroke="rgb(253,170,125)">
      <rect x="723.4213" width="30" height="30" y="504.6022" clip-path="url(#clipPath2)" stroke="none"/>
    </g>
    <g text-rendering="geometricPrecision" stroke-miterlimit="1.45" shape-rendering="geometricPrecision" transform="matrix(1,0,0,1,-511,-474)" stroke-linecap="butt">
      <rect fill="none" x="723.4213" width="30" height="30" y="504.6022" clip-path="url(#clipPath2)"/>
      <text x="735.5489" y="523.62" clip-path="url(#clipPath2)" fill="white" font-family="'Fira Sans Light'" stroke="none" xml:space="preserve">2</text>
    </g>
    <g fill="rgb(232,217,114)" text-rendering="geometricPrecision" shape-rendering="geometricPrecision" transform="matrix(1,0,0,1,-511,-474)" stroke="rgb(232,217,114)">
      <rect x="511.1621" width="30" height="30" y="504.6022" clip-path="url(#clipPath2)" stroke="none"/>
    </g>
    <g text-rendering="geometricPrecision" stroke-miterlimit="1.45" shape-rendering="geometricPrecision" transform="matrix(1,0,0,1,-511,-474)" stroke-linecap="butt">
      <rect fill="none" x="511.1621" width="30" height="30" y="504.6022" clip-path="url(#clipPath2)"/>
      <text x="523.2477" y="523.62" clip-path="url(#clipPath2)" fill="white" font-family="'Fira Sans Light'" stroke="none" xml:space="preserve">3</text>
    </g>
    <g fill="rgb(183,204,117)" text-rendering="geometricPrecision" shape-rendering="geometricPrecision" transform="matrix(1,0,0,1,-511,-474)" stroke="rgb(183,204,117)">
      <rect x="553.614" width="30" height="30" y="504.6022" clip-path="url(#clipPath2)" stroke="none"/>
    </g>
    <g text-rendering="geometricPrecision" stroke-miterlimit="1.45" shape-rendering="geometricPrecision" transform="matrix(1,0,0,1,-511,-474)" stroke-linecap="butt">
      <rect fill="none" x="553.614" width="30" height="30" y="504.6022" clip-path="url(#clipPath2)"/>
      <text x="565.5076" y="523.62" clip-path="url(#clipPath2)" fill="white" font-family="'Fira Sans Light'" stroke="none" xml:space="preserve">4</text>
    </g>
    <g fill="rgb(100,139,191)" text-rendering="geometricPrecision" shape-rendering="geometricPrecision" transform="matrix(1,0,0,1,-511,-474)" stroke="rgb(100,139,191)">
      <rect x="680.9695" width="30" height="30" y="504.6022" clip-path="url(#clipPath2)" stroke="none"/>
    </g>
    <g text-rendering="geometricPrecision" stroke-miterlimit="1.45" shape-rendering="geometricPrecision" transform="matrix(1,0,0,1,-511,-474)" stroke-linecap="butt">
      <rect fill="none" x="680.9695" width="30" height="30" y="504.6022" clip-path="url(#clipPath2)"/>
      <text x="693.0491" y="523.62" clip-path="url(#clipPath2)" fill="white" font-family="'Fira Sans Light'" stroke="none" xml:space="preserve">5</text>
    </g>
  </g>
</svg>
