<?xml version="1.0" encoding="UTF-8"?><svg xmlns="http://www.w3.org/2000/svg" xmlns:xlink="http://www.w3.org/1999/xlink" fill-opacity="1" color-rendering="auto" color-interpolation="auto" text-rendering="auto" stroke="black" stroke-linecap="square" width="510" stroke-miterlimit="10" shape-rendering="auto" stroke-opacity="1" fill="black" stroke-dasharray="none" font-weight="normal" stroke-width="1" height="181" font-family="'Dialog'" font-style="normal" stroke-linejoin="miter" font-size="12px" stroke-dashoffset="0" image-rendering="auto">
  <!--Generated by ySVG 2.6-->
  <defs id="genericDefs"/>
  <g>
    <defs id="defs1">
      <clipPath clipPathUnits="userSpaceOnUse" id="clipPath1">
        <path d="M0 0 L510 0 L510 181 L0 181 L0 0 Z"/>
      </clipPath>
      <clipPath clipPathUnits="userSpaceOnUse" id="clipPath2">
        <path d="M780 479 L1290 479 L1290 660 L780 660 L780 479 Z"/>
      </clipPath>
    </defs>
    <g fill="rgb(255,102,0)" text-rendering="geometricPrecision" shape-rendering="geometricPrecision" transform="matrix(1,0,0,1,-780,-479)" stroke="rgb(255,102,0)">
      <circle r="15" clip-path="url(#clipPath2)" cx="810" cy="510" stroke="none"/>
    </g>
    <g text-rendering="geometricPrecision" stroke-miterlimit="1.45" shape-rendering="geometricPrecision" transform="matrix(1,0,0,1,-780,-479)" stroke-linecap="butt">
      <circle fill="none" r="15" clip-path="url(#clipPath2)" cx="810" cy="510"/>
      <text x="804.6641" font-size="16px" y="516.2852" clip-path="url(#clipPath2)" font-family="sans-serif" stroke="none" xml:space="preserve">A</text>
    </g>
    <g fill="rgb(255,204,0)" text-rendering="geometricPrecision" shape-rendering="geometricPrecision" transform="matrix(1,0,0,1,-780,-479)" stroke="rgb(255,204,0)">
      <circle r="15" clip-path="url(#clipPath2)" cx="964.5262" cy="510" stroke="none"/>
    </g>
    <g text-rendering="geometricPrecision" stroke-miterlimit="1.45" shape-rendering="geometricPrecision" transform="matrix(1,0,0,1,-780,-479)" stroke-linecap="butt">
      <circle fill="none" r="15" clip-path="url(#clipPath2)" cx="964.5262" cy="510"/>
    </g>
    <g fill="rgb(255,102,0)" text-rendering="geometricPrecision" shape-rendering="geometricPrecision" transform="matrix(1,0,0,1,-780,-479)" stroke="rgb(255,102,0)">
      <circle r="15" clip-path="url(#clipPath2)" cx="1260" cy="510" stroke="none"/>
    </g>
    <g text-rendering="geometricPrecision" stroke-miterlimit="1.45" shape-rendering="geometricPrecision" transform="matrix(1,0,0,1,-780,-479)" stroke-linecap="butt">
      <circle fill="none" r="15" clip-path="url(#clipPath2)" cx="1260" cy="510"/>
      <text x="1254.6641" font-size="16px" y="516.2852" clip-path="url(#clipPath2)" font-family="sans-serif" stroke="none" xml:space="preserve">B</text>
    </g>
    <g fill="rgb(255,204,0)" text-rendering="geometricPrecision" shape-rendering="geometricPrecision" transform="matrix(1,0,0,1,-780,-479)" stroke="rgb(255,204,0)">
      <circle r="15" clip-path="url(#clipPath2)" cx="1033.5736" cy="630" stroke="none"/>
    </g>
    <g text-rendering="geometricPrecision" stroke-miterlimit="1.45" shape-rendering="geometricPrecision" transform="matrix(1,0,0,1,-780,-479)" stroke-linecap="butt">
      <circle fill="none" r="15" clip-path="url(#clipPath2)" cx="1033.5736" cy="630"/>
    </g>
    <g fill="rgb(255,204,0)" text-rendering="geometricPrecision" shape-rendering="geometricPrecision" transform="matrix(1,0,0,1,-780,-479)" stroke="rgb(255,204,0)">
      <circle r="15" clip-path="url(#clipPath2)" cx="964.5262" cy="510" stroke="none"/>
    </g>
    <g text-rendering="geometricPrecision" stroke-miterlimit="1.45" shape-rendering="geometricPrecision" transform="matrix(1,0,0,1,-780,-479)" stroke-linecap="butt">
      <circle fill="none" r="15" clip-path="url(#clipPath2)" cx="964.5262" cy="510"/>
    </g>
    <g fill="rgb(255,204,0)" text-rendering="geometricPrecision" shape-rendering="geometricPrecision" transform="matrix(1,0,0,1,-780,-479)" stroke="rgb(255,204,0)">
      <circle r="15" clip-path="url(#clipPath2)" cx="1110" cy="510" stroke="none"/>
    </g>
    <g text-rendering="geometricPrecision" stroke-miterlimit="1.45" shape-rendering="geometricPrecision" transform="matrix(1,0,0,1,-780,-479)" stroke-linecap="butt">
      <circle fill="none" r="15" clip-path="url(#clipPath2)" cx="1110" cy="510"/>
      <path fill="none" d="M825 510 L949.5262 510" clip-path="url(#clipPath2)"/>
      <rect x="846.9076" y="497.6494" clip-path="url(#clipPath2)" fill="silver" width="80.7109" height="24.7012" stroke="none"/>
      <text x="851.9077" xml:space="preserve" y="514.7139" clip-path="url(#clipPath2)" font-family="sans-serif" stroke="none">liaison rapide</text>
      <path fill="none" d="M818.2362 522.5366 L819.9059 525.0781 L830.3542 539.1457 L841.3448 552.2029 L852.8777 564.2497 L864.9529 575.2861 L877.5705 585.3121 L890.7303 594.3278 L904.4326 602.3329 L918.6771 609.3278 L933.4639 615.3121 L948.793 620.2861 L964.6646 624.2497 L981.0783 627.2029 L998.0344 629.1457 L1015.5328 630.0781 L1018.5984 630.0648" clip-path="url(#clipPath2)"/>
      <rect x="867.7451" y="589.9824" clip-path="url(#clipPath2)" fill="silver" width="73.375" height="24.7012" stroke="none"/>
      <text x="872.7451" xml:space="preserve" y="607.0468" clip-path="url(#clipPath2)" font-family="sans-serif" stroke="none">liaison lente</text>
      <path fill="none" d="M1048.5831 630.1978 L1051.8275 630.2405 L1069.5345 629.449 L1086.6945 627.6254 L1103.3075 624.7697 L1119.3735 620.882 L1134.8927 615.9621 L1149.8647 610.0102 L1164.2899 603.0262 L1178.1681 595.0102 L1191.4993 585.9621 L1204.2834 575.882 L1216.5208 564.7697 L1228.2109 552.6254 L1239.3542 539.449 L1249.9507 525.2405 L1251.7368 522.5318" clip-path="url(#clipPath2)"/>
      <rect x="1127.6024" y="590.6757" clip-path="url(#clipPath2)" fill="silver" width="73.375" height="24.7012" stroke="none"/>
      <text x="1132.6024" xml:space="preserve" y="607.7401" clip-path="url(#clipPath2)" font-family="sans-serif" stroke="none">liaison lente</text>
      <path fill="none" d="M979.5262 510 L1095 510" clip-path="url(#clipPath2)"/>
      <rect x="996.9076" y="497.6494" clip-path="url(#clipPath2)" fill="silver" width="80.7109" height="24.7012" stroke="none"/>
      <text x="1001.9077" xml:space="preserve" y="514.7139" clip-path="url(#clipPath2)" font-family="sans-serif" stroke="none">liaison rapide</text>
      <path fill="none" d="M1125 510 L1245 510" clip-path="url(#clipPath2)"/>
      <rect x="1147.6445" y="500.6494" clip-path="url(#clipPath2)" fill="silver" width="74.7109" height="18.7012" stroke="none"/>
      <text x="1149.6445" xml:space="preserve" y="514.7139" clip-path="url(#clipPath2)" font-family="sans-serif" stroke="none">liaison rapide</text>
    </g>
  </g>
</svg>
